<svg width="120" height="200" viewBox="0 0 120 200" fill="none" xmlns="http://www.w3.org/2000/svg">
<path fill-rule="evenodd" clip-rule="evenodd" d="M97.9422 88.5018C98.2173 88.5251 98.4215 88.767 98.3983 89.0422C97.0228 105.319 91.1614 117.592 84.9159 125.984C80.3122 132.17 75.4917 136.259 72.091 138.288C72.0624 140.314 72.0029 142.392 71.9092 144.522C71.2147 160.308 68.644 178.921 62.8818 199.634C62.8078 199.9 62.5321 200.056 62.266 199.982C62 199.908 61.8443 199.632 61.9184 199.366C67.6248 178.854 70.1877 160.415 70.8973 144.765C68.0466 142.916 64.444 140.233 60.5714 136.856C56.5026 133.308 52.1305 128.989 48.0162 124.058C46.6405 122.41 45.2934 120.692 43.996 118.912C38.1603 110.907 33.3183 101.618 31.4089 91.5936C31.3572 91.3223 31.5352 91.0606 31.8065 91.0089C32.0778 90.9572 32.3396 91.1352 32.3912 91.4065C34.2646 101.242 39.0249 110.395 44.8041 118.323C46.0879 120.085 47.4214 121.785 48.784 123.418C52.8601 128.303 57.1941 132.584 61.2287 136.102C64.8477 139.258 68.2216 141.796 70.9469 143.601C71.0231 141.689 71.0716 139.819 71.0949 137.994C71.367 116.65 66.3661 87.8044 63.613 80.6462C63.5138 80.3884 63.6424 80.0991 63.9001 80C64.1579 79.9009 64.4472 80.0295 64.5463 80.2872C67.3185 87.4949 72.2784 116.144 72.1043 137.106C75.3433 135.054 79.8129 131.166 84.1136 125.387C90.2584 117.13 96.0434 105.032 97.4018 88.9579C97.4251 88.6828 97.667 88.4786 97.9422 88.5018Z" fill="#0A3019"/>
<path fill-rule="evenodd" clip-rule="evenodd" d="M88.4428 80.1809C88.6368 80.2867 88.7082 80.5296 88.6025 80.7236C87.9001 83.5 87.9938 83.6391 87.1164 89.6585C86.3711 94.7718 85.8553 100.528 85.5114 106.123C87.0703 101.64 89.175 95.871 91.2846 90.6502C92.5709 87.4669 91.7125 89.5135 92.8839 87.1453C93.4695 85.9615 94.0281 84.9263 94.5439 84.0956C95.055 83.2726 95.5414 82.6217 95.9879 82.231C96.1542 82.0855 96.4069 82.1024 96.5523 82.2686C96.6978 82.4349 96.681 82.6876 96.5147 82.8331C96.1612 83.1424 95.7257 83.7091 95.2236 84.5177C94.7263 85.3184 94.1804 86.3286 93.601 87.5C92.4424 89.8422 93.3093 87.7748 92.0264 90.9499C89.4705 97.2753 86.9196 104.413 85.3444 109.076C85.0155 115.439 84.9022 121.389 84.9148 125.685C84.9155 125.905 84.7369 126.085 84.516 126.086C84.2951 126.086 84.1155 125.908 84.1148 125.687C84.1022 121.365 84.2165 115.378 84.5484 108.979C84.8848 102.494 85.4451 95.5787 86.3248 89.5431C87.2019 83.5253 86.9001 83.5 87.9001 80.3405C88.0059 80.1465 88.2489 80.0751 88.4428 80.1809ZM24.2017 91.1527C24.3935 91.0431 24.6378 91.1098 24.7474 91.3016C26.3485 94.1035 32.7003 107.222 35.7148 113.511C39.1071 115.846 42.3589 117.434 44.5392 118.243C44.7463 118.32 44.852 118.55 44.7752 118.757C44.6984 118.964 44.4682 119.07 44.261 118.993C41.9965 118.153 38.6484 116.513 35.1725 114.109C30.0866 110.59 24.6828 105.404 22.0278 98.6463C21.947 98.4407 22.0482 98.2085 22.2538 98.1277C22.4595 98.0469 22.6916 98.1481 22.7724 98.3538C25.1311 104.358 29.7474 109.12 34.364 112.545C31.1666 105.892 25.5326 94.288 24.0528 91.6985C23.9432 91.5067 24.0098 91.2623 24.2017 91.1527ZM41.1298 97.2052C41.2927 97.0559 41.5457 97.0669 41.695 97.2297C42.8454 98.4848 43.8234 100.358 44.6535 102.533C45.4862 104.715 46.1818 107.233 46.7531 109.802C47.8956 114.941 48.5479 120.32 48.799 123.708C48.8153 123.929 48.65 124.12 48.4297 124.137C48.2094 124.153 48.0175 123.988 48.0012 123.767C47.7523 120.41 47.1046 115.07 45.9721 109.976C45.4059 107.429 44.7203 104.952 43.9061 102.819C43.0893 100.678 42.1548 98.9152 41.1052 97.7703C40.956 97.6075 40.967 97.3544 41.1298 97.2052ZM53.8785 102.601C54.0991 102.589 54.2876 102.758 54.2995 102.978C54.6947 110.29 57.6946 117.602 61.3061 123.786C64.9159 129.967 69.1177 134.989 71.8761 137.715C72.0332 137.871 72.0347 138.124 71.8794 138.281C71.7241 138.438 71.4709 138.44 71.3137 138.284C68.5072 135.511 64.2616 130.433 60.6153 124.189C56.9706 117.948 53.9055 110.51 53.5007 103.022C53.4888 102.801 53.6579 102.613 53.8785 102.601ZM96.7227 114.763C96.8533 114.942 96.8148 115.192 96.6367 115.323C93.7159 117.464 91.1448 121.352 89.113 125.392C87.385 128.829 86.0669 132.336 85.2668 134.882C89.2819 131.61 93.5854 127.553 97.5928 122.744C97.7342 122.574 97.9865 122.551 98.1562 122.693C98.3259 122.834 98.3488 123.086 98.2074 123.256C93.824 128.516 89.0927 132.882 84.7633 136.313C79.1721 140.745 74.2404 143.626 71.5782 144.863C71.3779 144.956 71.14 144.869 71.0469 144.669C70.9538 144.468 71.0408 144.23 71.2411 144.137C73.821 142.939 78.6563 140.12 84.1654 135.766C84.9138 133.154 86.3794 129.048 88.3983 125.033C90.4437 120.965 93.0844 116.936 96.1636 114.677C96.3417 114.547 96.592 114.585 96.7227 114.763ZM33.5324 120.842C33.6195 120.639 33.8546 120.545 34.0577 120.632C34.8176 120.958 35.9484 121.778 37.2495 122.849C38.5645 123.931 40.0933 125.302 41.6607 126.767C44.7528 129.656 48.0096 132.924 50.1004 135.089C54.5859 135.96 58.5677 136.163 60.8858 136.08C61.1065 136.072 61.2919 136.244 61.2999 136.465C61.3078 136.686 61.1352 136.871 60.9145 136.879C58.5111 136.965 54.4162 136.753 49.8229 135.849C45.055 134.912 39.7243 133.226 35.1854 130.337C34.999 130.219 34.944 129.972 35.0626 129.785C35.1812 129.599 35.4285 129.544 35.6149 129.663C39.6455 132.227 44.3393 133.833 48.703 134.798C46.6422 132.689 43.814 129.874 41.1145 127.351C39.5528 125.892 38.0378 124.533 36.7413 123.467C35.431 122.389 34.3826 121.642 33.7425 121.368C33.5395 121.281 33.4454 121.045 33.5324 120.842Z" fill="#0A3019"/>
<circle cx="24.5" cy="91.5" r="2.5" fill="#FD6565"/>
<circle cx="40.5" cy="96.5" r="2.5" fill="#FD6565"/>
<circle cx="53.5" cy="102.5" r="2.5" fill="#FD6565"/>
<circle cx="96.5" cy="114.5" r="2.5" fill="#FD6565"/>
<circle cx="98.5" cy="122.5" r="2.5" fill="#FD6565"/>
<circle cx="34.5" cy="120.5" r="2.5" fill="#FD6565"/>
<circle cx="35.5" cy="129.5" r="2.5" fill="#FD6565"/>
<circle cx="22" cy="98" r="3" fill="#FD6565"/>
<circle cx="87.5" cy="82.5" r="2.5" fill="#FD6565"/>
<circle cx="96.5" cy="83.5" r="2.5" fill="#FD6565"/>
<path d="M66.9148 95.0033C85.5355 64.4559 82.6416 38.0399 78.8671 28.6503C66.2856 -13.9158 36.7709 0.478724 30.4282 11.749C9.29127 49.3073 46.1552 83.5271 66.9148 95.0033Z" fill="#CDCDCD"/>
<path d="M68.1623 92.8502C82.0011 64.387 81.2953 43.3838 78.4901 34.6349C69.1396 -5.02687 44.29 7.10816 41.0458 15.2764C25.337 50.2721 52.734 82.1571 68.1623 92.8502Z" fill="white"/>
<path d="M39.019 71.1576C39.019 81.1731 57.8913 92.4406 67.3274 96.8224C72.9891 87.4328 83.6834 67.5269 81.1671 63.0199C78.6508 58.513 76.1345 67.4017 73.6182 69.9056C74.8763 67.6104 73.6182 60.5161 72.36 59.8901C69.8437 58.6381 66.9081 67.6104 66.0693 73.0355C66.0693 67.819 65.0628 57.6366 61.0367 58.6381C57.0106 59.6397 57.6816 70.3229 58.5204 75.5394C57.0525 71.1576 53.362 62.7696 50.3424 64.2719C47.3228 65.7742 49.5036 74.4961 50.9715 78.6692C42.4161 68.1529 39.4384 69.2796 39.019 71.1576Z" fill="#9B9B9B"/>
<g style="mix-blend-mode:multiply">
<path d="M66.9148 95.0033C85.5355 64.4559 82.6416 38.0399 78.8671 28.6503C66.2856 -13.9158 36.7709 0.478724 30.4282 11.749C9.29127 49.3073 46.1552 83.5271 66.9148 95.0033Z" fill="#FD6565"/>
<path d="M68.1623 92.8502C82.0011 64.387 81.2953 43.3838 78.4901 34.6349C69.1396 -5.02687 44.29 7.10816 41.0458 15.2764C25.337 50.2721 52.734 82.1571 68.1623 92.8502Z" fill="#FD6565"/>
<path d="M39.019 71.1576C39.019 81.1731 57.8913 92.4406 67.3274 96.8224C72.9891 87.4328 83.6834 67.5269 81.1671 63.0199C78.6508 58.513 76.1345 67.4017 73.6182 69.9056C74.8763 67.6104 73.6182 60.5161 72.36 59.8901C69.8437 58.6381 66.9081 67.6104 66.0693 73.0355C66.0693 67.819 65.0628 57.6366 61.0367 58.6381C57.0106 59.6397 57.6816 70.3229 58.5204 75.5394C57.0525 71.1576 53.362 62.7696 50.3424 64.2719C47.3228 65.7742 49.5036 74.4961 50.9715 78.6692C42.4161 68.1529 39.4384 69.2796 39.019 71.1576Z" fill="#FD6565"/>
</g>
<g style="mix-blend-mode:soft-light">
<path d="M66.9148 95.0033C85.5355 64.4559 82.6416 38.0399 78.8671 28.6503C66.2856 -13.9158 36.7709 0.478724 30.4282 11.749C9.29127 49.3073 46.1552 83.5271 66.9148 95.0033Z" fill="#FD6565"/>
<path d="M68.1623 92.8502C82.0011 64.387 81.2953 43.3838 78.4901 34.6349C69.1396 -5.02687 44.29 7.10816 41.0458 15.2764C25.337 50.2721 52.734 82.1571 68.1623 92.8502Z" fill="#FD6565"/>
<path d="M39.019 71.1576C39.019 81.1731 57.8913 92.4406 67.3274 96.8224C72.9891 87.4328 83.6834 67.5269 81.1671 63.0199C78.6508 58.513 76.1345 67.4017 73.6182 69.9056C74.8763 67.6104 73.6182 60.5161 72.36 59.8901C69.8437 58.6381 66.9081 67.6104 66.0693 73.0355C66.0693 67.819 65.0628 57.6366 61.0367 58.6381C57.0106 59.6397 57.6816 70.3229 58.5204 75.5394C57.0525 71.1576 53.362 62.7696 50.3424 64.2719C47.3228 65.7742 49.5036 74.4961 50.9715 78.6692C42.4161 68.1529 39.4384 69.2796 39.019 71.1576Z" fill="#FD6565"/>
</g>
</svg>
