<svg width="124" height="213" viewBox="0 0 124 213" fill="none" xmlns="http://www.w3.org/2000/svg">
<path d="M62.1465 67C64.2998 81.6465 67.3145 115.883 62.1465 135.655C55.6864 160.371 49.7233 196.072 58.171 212" stroke="#0A3019" stroke-linecap="round"/>
<path d="M47.0542 194.373C46.0551 186.124 40.6018 180.103 38 178.124C41.247 173.374 48.303 177.811 51.4251 180.624C48.9274 173.624 49.3437 164.374 49.8641 160.624C53.1111 162.624 57.4613 172.082 59.2305 176.561C57.2323 165.062 59.4386 154.479 60.7915 150.625C63.7888 152.124 65.9951 163.541 66.7236 169.062C66.7236 160.812 74.6329 147.5 78.5876 141.875C79.337 142.875 79.5243 152.291 79.5243 156.874C84.7695 145.375 96.0716 134.167 101.067 130C100.068 148.75 95.239 159.687 92.9494 162.812C101.691 155.312 108.248 154.062 110.433 154.374C108.685 161.124 95.7593 171.353 89.5151 175.624C99.2561 170.624 104.605 171.249 106.062 172.186C104.814 177.936 93.2616 183.54 87.6418 185.624C97.3828 185.374 103.357 188.019 105.126 189.374C102.128 193.873 87.85 196.248 81.0853 196.873C90.3268 198.873 95.7593 207.498 97.3204 211.561C95.1349 209.477 87.8916 206.123 76.4022 209.373C64.9127 212.623 57.6694 212.186 55.4839 211.561C53.0903 209.269 48.0532 202.623 47.0542 194.373Z" fill="#51B022"/>
<path d="M76.7143 171.249C66.4738 185.499 60.5833 200.727 58.9182 206.561C62.1444 199.998 70.4701 184.561 77.9632 175.311C85.4563 166.062 93.1575 148.333 96.0715 140.625C93.886 144.895 86.9549 156.999 76.7143 171.249Z" fill="#51B022"/>
<path d="M60.0375 200.392C60.6954 194.959 64.2866 190.995 66 189.691C63.8617 186.563 59.2151 189.486 57.1591 191.338C58.8039 186.728 58.5297 180.637 58.1871 178.167C56.0488 179.484 53.1841 185.713 52.019 188.662C53.3348 181.089 51.8819 174.12 50.9909 171.582C49.0172 172.57 47.5642 180.088 47.0845 183.723C47.0845 178.291 41.8759 169.524 39.2716 165.82C38.7781 166.478 38.6547 172.68 38.6547 175.698C35.2006 168.125 27.7578 160.744 24.4681 158C25.126 170.347 28.306 177.55 29.8138 179.608C24.0569 174.669 19.7392 173.846 18.3 174.051C19.4514 178.496 27.9634 185.233 32.0754 188.045C25.6606 184.752 22.1379 185.164 21.1784 185.781C22.0009 189.568 29.6082 193.258 33.3091 194.63C26.8942 194.466 22.9603 196.208 21.7953 197.1C23.7691 200.063 33.172 201.627 37.6267 202.039C31.5409 203.356 27.9634 209.035 26.9353 211.711C28.3746 210.339 33.1446 208.13 40.7108 210.27C48.277 212.41 53.047 212.122 54.4862 211.711C56.0625 210.201 59.3796 205.825 60.0375 200.392Z" fill="#51B022"/>
<path d="M40.5052 185.164C47.249 194.548 51.1281 204.577 52.2246 208.418C50.1 204.096 44.6173 193.931 39.6828 187.839C34.7483 181.748 29.6768 170.073 27.7578 164.997C29.197 167.809 33.7614 175.78 40.5052 185.164Z" fill="#51B022"/>
<path d="M53.0659 35.5752C58.0313 28.3204 68.3768 13.7631 70.0357 13.5724C71.6945 13.3817 73.4382 33.2799 74.1027 43.2529C83.9741 42.2115 103.758 40.741 103.924 43.1899C104.09 45.6387 88.3046 58.1665 80.3913 64.1243C86.8694 68.1472 100.375 78.3173 102.571 86.8147C96.8843 86.0662 83.483 83.2319 75.37 77.8826C78.901 85.1422 85.4243 100.593 83.2701 104.318C81.9663 105.169 69.9673 93.9563 65.0742 83.4132C63.8831 90.608 59.7239 105.875 52.6158 109.385C49.4301 107.227 48.043 80.1829 48.043 80.1829C42.9395 85.397 31.8502 95.7022 29.4901 95.637C26.5766 95.5565 39.3384 71.1073 42.037 70.092C34.9565 72.0556 16.9225 73.7842 15.184 69.5174C15.1621 66.8557 19.6319 61.3219 36.3163 53.3461C28.615 49.6508 14.5207 41.9416 19.7537 40.667C24.9866 39.3923 35.255 42.3437 39.735 43.9788C36.9309 36.5421 32.7745 17.4971 36.9872 19.7555C40.864 21.8339 49.5946 29.6642 53.0659 35.5752Z" fill="#CDCDCD"/>
<path d="M65.9427 57.97C52.0121 35.9018 43.399 30.8343 44.112 33.4167C49.7354 39.7812 56.4695 54.2915 58.2547 61.7986C42.4806 60.0223 25.241 63.3501 27.2296 66.0663C28.1134 67.2735 51.927 62.8063 57.4218 66.8021C65.5615 78.0658 80.4212 91.7821 79.8652 90.584C79.1238 88.9865 68.2426 74.9531 63.4005 67.6573C82.6098 56.7551 90.2264 51.6955 88.8653 51.4085C86.7132 50.9548 73.0516 56.031 65.9427 57.97Z" fill="#9B9B9B"/>
<path d="M59.9586 31.1021C53.5015 30.0857 53.0117 41.6535 53.574 47.5644C52.4633 45.6925 47.4014 45.9492 45.4128 48.7495C41.5494 54.19 45.8923 60.0191 48.5467 62.2536C41.2793 66.5291 45.2638 73.0644 48.1645 75.7975C56.7905 84.2196 60.5477 77.3835 61.7994 72.5077C63.9582 74.2411 69.6913 76.2032 75.3536 70.1848C81.0159 64.1665 75.2742 58.7206 71.6956 56.75C74.2519 54.6413 78.4447 49.1643 74.7652 44.1258C71.0857 39.0873 66.3491 42.1571 64.4408 44.3218C65.6371 40.3388 66.4156 32.1186 59.9586 31.1021Z" fill="white"/>
<path d="M65.8767 60.7934C64.7557 63.8651 61.3614 65.4481 58.2955 64.3292C55.2296 63.2102 53.6529 59.813 54.774 56.7413C56.697 51.4722 61.0707 51.7415 64.1366 52.8605C67.2026 53.9794 66.9978 57.7216 65.8767 60.7934Z" fill="#CDCDCD"/>
<path d="M58.9319 56.553C58.2935 56.8507 59.5686 57.2277 60.286 57.3789C63.3145 58.1525 59.8021 60.5194 60.3864 60.7327C60.9708 60.946 63.657 59.9361 62.8371 57.6465C62.0173 55.357 59.7299 56.1808 58.9319 56.553Z" fill="#9B9B9B"/>
<g style="mix-blend-mode:multiply">
<path d="M53.0659 35.5752C58.0313 28.3204 68.3768 13.7631 70.0357 13.5724C71.6945 13.3817 73.4382 33.2799 74.1027 43.2529C83.9741 42.2115 103.758 40.741 103.924 43.1899C104.09 45.6387 88.3046 58.1665 80.3913 64.1243C86.8694 68.1472 100.375 78.3173 102.571 86.8147C96.8843 86.0662 83.483 83.2319 75.37 77.8826C78.901 85.1422 85.4243 100.593 83.2701 104.318C81.9663 105.169 69.9673 93.9563 65.0742 83.4132C63.8831 90.608 59.7239 105.875 52.6158 109.385C49.4301 107.227 48.043 80.1829 48.043 80.1829C42.9395 85.397 31.8502 95.7022 29.4901 95.637C26.5766 95.5565 39.3384 71.1073 42.037 70.092C34.9565 72.0556 16.9225 73.7842 15.184 69.5174C15.1621 66.8557 19.6319 61.3219 36.3163 53.3461C28.615 49.6508 14.5207 41.9416 19.7537 40.667C24.9866 39.3923 35.255 42.3437 39.735 43.9788C36.9309 36.5421 32.7745 17.4971 36.9872 19.7555C40.864 21.8339 49.5946 29.6642 53.0659 35.5752Z" fill="#FDBC15"/>
<path d="M65.9427 57.97C52.0121 35.9018 43.399 30.8343 44.112 33.4167C49.7354 39.7812 56.4695 54.2915 58.2547 61.7986C42.4806 60.0223 25.241 63.3501 27.2296 66.0663C28.1134 67.2735 51.927 62.8063 57.4218 66.8021C65.5615 78.0658 80.4212 91.7821 79.8652 90.584C79.1238 88.9865 68.2426 74.9531 63.4005 67.6573C82.6098 56.7551 90.2264 51.6955 88.8653 51.4085C86.7132 50.9548 73.0516 56.031 65.9427 57.97Z" fill="#FDBC15"/>
<path d="M59.9586 31.1021C53.5015 30.0857 53.0117 41.6535 53.574 47.5644C52.4633 45.6925 47.4014 45.9492 45.4128 48.7495C41.5494 54.19 45.8923 60.0191 48.5467 62.2536C41.2793 66.5291 45.2638 73.0644 48.1645 75.7975C56.7905 84.2196 60.5477 77.3835 61.7994 72.5077C63.9582 74.2411 69.6913 76.2032 75.3536 70.1848C81.0159 64.1665 75.2742 58.7206 71.6956 56.75C74.2519 54.6413 78.4447 49.1643 74.7652 44.1258C71.0857 39.0873 66.3491 42.1571 64.4408 44.3218C65.6371 40.3388 66.4156 32.1186 59.9586 31.1021Z" fill="#FDBC15"/>
<path d="M65.8767 60.7934C64.7557 63.8651 61.3614 65.4481 58.2955 64.3292C55.2296 63.2102 53.6529 59.813 54.774 56.7413C56.697 51.4722 61.0707 51.7415 64.1366 52.8605C67.2026 53.9794 66.9978 57.7216 65.8767 60.7934Z" fill="#FDBC15"/>
<path d="M58.9319 56.553C58.2935 56.8507 59.5686 57.2277 60.286 57.3789C63.3145 58.1525 59.8021 60.5194 60.3864 60.7327C60.9708 60.946 63.657 59.9361 62.8371 57.6465C62.0173 55.357 59.7299 56.1808 58.9319 56.553Z" fill="#FDBC15"/>
</g>
<g style="mix-blend-mode:soft-light">
<path d="M53.0659 35.5752C58.0313 28.3204 68.3768 13.7631 70.0357 13.5724C71.6945 13.3817 73.4382 33.2799 74.1027 43.2529C83.9741 42.2115 103.758 40.741 103.924 43.1899C104.09 45.6387 88.3046 58.1665 80.3913 64.1243C86.8694 68.1472 100.375 78.3173 102.571 86.8147C96.8843 86.0662 83.483 83.2319 75.37 77.8826C78.901 85.1422 85.4243 100.593 83.2701 104.318C81.9663 105.169 69.9673 93.9563 65.0742 83.4132C63.8831 90.608 59.7239 105.875 52.6158 109.385C49.4301 107.227 48.043 80.1829 48.043 80.1829C42.9395 85.397 31.8502 95.7022 29.4901 95.637C26.5766 95.5565 39.3384 71.1073 42.037 70.092C34.9565 72.0556 16.9225 73.7842 15.184 69.5174C15.1621 66.8557 19.6319 61.3219 36.3163 53.3461C28.615 49.6508 14.5207 41.9416 19.7537 40.667C24.9866 39.3923 35.255 42.3437 39.735 43.9788C36.9309 36.5421 32.7745 17.4971 36.9872 19.7555C40.864 21.8339 49.5946 29.6642 53.0659 35.5752Z" fill="#FDBC15"/>
<path d="M65.9427 57.97C52.0121 35.9018 43.399 30.8343 44.112 33.4167C49.7354 39.7812 56.4695 54.2915 58.2547 61.7986C42.4806 60.0223 25.241 63.3501 27.2296 66.0663C28.1134 67.2735 51.927 62.8063 57.4218 66.8021C65.5615 78.0658 80.4212 91.7821 79.8652 90.584C79.1238 88.9865 68.2426 74.9531 63.4005 67.6573C82.6098 56.7551 90.2264 51.6955 88.8653 51.4085C86.7132 50.9548 73.0516 56.031 65.9427 57.97Z" fill="#FDBC15"/>
<path d="M59.9586 31.1021C53.5015 30.0857 53.0117 41.6535 53.574 47.5644C52.4633 45.6925 47.4014 45.9492 45.4128 48.7495C41.5494 54.19 45.8923 60.0191 48.5467 62.2536C41.2793 66.5291 45.2638 73.0644 48.1645 75.7975C56.7905 84.2196 60.5477 77.3835 61.7994 72.5077C63.9582 74.2411 69.6913 76.2032 75.3536 70.1848C81.0159 64.1665 75.2742 58.7206 71.6956 56.75C74.2519 54.6413 78.4447 49.1643 74.7652 44.1258C71.0857 39.0873 66.3491 42.1571 64.4408 44.3218C65.6371 40.3388 66.4156 32.1186 59.9586 31.1021Z" fill="#FDBC15"/>
<path d="M65.8767 60.7934C64.7557 63.8651 61.3614 65.4481 58.2955 64.3292C55.2296 63.2102 53.6529 59.813 54.774 56.7413C56.697 51.4722 61.0707 51.7415 64.1366 52.8605C67.2026 53.9794 66.9978 57.7216 65.8767 60.7934Z" fill="#FDBC15"/>
<path d="M58.9319 56.553C58.2935 56.8507 59.5686 57.2277 60.286 57.3789C63.3145 58.1525 59.8021 60.5194 60.3864 60.7327C60.9708 60.946 63.657 59.9361 62.8371 57.6465C62.0173 55.357 59.7299 56.1808 58.9319 56.553Z" fill="#FDBC15"/>
</g>
<path d="M38.3164 109.24C50.0907 112.593 56.7948 129.522 60.4743 139.476C56.4444 134.586 47.0283 125.073 42.6025 123.236C36.2948 120.616 29.8251 120.391 20.4446 133.863C18.342 121.29 23.5984 105.049 38.3164 109.24Z" fill="#FDBC15"/>
<path fill-rule="evenodd" clip-rule="evenodd" d="M43.1374 118.701C50.4411 123.104 57.0665 132.214 60.9348 139.224C61.0747 139.477 60.9819 139.796 60.7276 139.935C60.4732 140.074 60.1536 139.982 60.0137 139.728C56.1726 132.768 49.657 123.856 42.5932 119.597C39.072 117.475 35.4795 116.546 32.0341 117.506C28.5877 118.466 25.1566 121.352 22.0402 127.15C21.9031 127.405 21.5846 127.501 21.3287 127.365C21.0728 127.228 20.9765 126.91 21.1135 126.655C24.3049 120.718 27.9261 117.562 31.7511 116.497C35.577 115.431 39.4748 116.493 43.1374 118.701Z" fill="#FDBC15"/>
<path d="M89.4842 118.03C77.812 118.212 67.4592 132.15 61.6136 140.41C66.5321 136.901 77.5526 130.463 82.0825 129.863C88.5387 129.007 94.5531 130.396 99.8683 145.119C104.908 134.058 104.075 117.802 89.4842 118.03Z" fill="#FDBC15"/>
<path fill-rule="evenodd" clip-rule="evenodd" d="M82.709 125.554C74.8952 127.807 66.5447 134.562 61.2517 140.064C61.0603 140.263 61.0672 140.579 61.267 140.77C61.4669 140.962 61.7841 140.955 61.9755 140.756C67.2311 135.293 75.4318 128.693 82.9889 126.514C86.756 125.428 90.2941 125.459 93.2306 127.193C96.168 128.928 98.6158 132.434 100.055 138.543C100.119 138.811 100.388 138.979 100.658 138.916C100.927 138.853 101.094 138.584 101.031 138.316C99.5568 132.06 97.0003 128.259 93.7403 126.334C90.4795 124.408 86.6273 124.424 82.709 125.554Z" fill="#FDBC15"/>
</svg>
