<svg width="120" height="200" viewBox="0 0 120 200" fill="none" xmlns="http://www.w3.org/2000/svg">
<path d="M72.1455 105.249C71.8876 105.163 71.5986 105.276 71.5 105.5C69 111.5 60.5 120 59.6001 133L60.1001 136C61 121.5 68.5 114 72.4341 105.81C72.5327 105.586 72.4035 105.335 72.1455 105.249Z" fill="#0A3019"/>
<path d="M60.0092 144.522C60.1029 142.392 60.1625 140.314 60.1911 138.288L60.2044 137.106C60.3785 116.144 55.4186 87.4949 52.6464 80.2872C52.5472 80.0295 52.258 79.9009 52.0002 80C51.7425 80.0991 51.6139 80.3884 51.713 80.6462C54.4662 87.8044 59.4671 116.65 59.195 137.994C59.1717 139.819 59.1232 141.689 59.047 143.601L58.9974 144.765C58.2877 160.415 55.7249 178.854 50.0184 199.366C49.9444 199.632 50.1001 199.908 50.3661 199.982C50.6322 200.056 50.9078 199.9 50.9818 199.634C56.7441 178.921 59.3147 160.308 60.0092 144.522Z" fill="#0A3019"/>
<path d="M73.0853 151.593C71.9294 150.813 70.8537 150.216 69.9641 149.961C69.7347 148.581 68.898 145.648 67.1528 142.13C66.2603 140.33 65.1301 138.377 63.7219 136.401C61.6112 133.438 62.2412 130.389 64.5347 128.056C65.5864 126.986 66.9878 126.067 68.6351 125.375C69.8127 124.881 71.1158 124.503 72.5066 124.269C73.5245 124.099 74.5893 124.005 75.6862 124C76.7975 123.995 77.9418 124.081 79.1036 124.269C80.0366 124.421 80.9808 124.638 81.9283 124.927C82.8345 125.203 83.7019 125.537 84.5293 125.921C85.532 126.387 86.4761 126.928 87.3596 127.535C88.2064 128.116 88.9975 128.757 89.7311 129.448C90.477 130.152 91.1635 130.908 91.7887 131.707C92.2896 132.347 92.7512 133.016 93.1725 133.707C93.7526 134.659 94.2563 135.654 94.6811 136.681C95.2019 137.939 95.604 139.244 95.883 140.573C96.1411 141.803 96.2937 143.053 96.3371 144.305C96.3825 145.615 96.3083 146.927 96.1104 148.221C95.9354 149.365 95.6635 150.493 95.292 151.593C95.1812 151.921 95.0615 152.247 94.9329 152.569C93.635 155.822 92.1998 157.836 90.7715 159.027C87.6205 161.654 84.5034 160.272 82.9687 159.349C81.0032 158.167 76.661 154.006 73.0853 151.593Z" fill="#51B022"/>
<path d="M72.1596 124.331C72.2746 124.309 72.3903 124.289 72.5066 124.269C72.6089 124.252 72.7117 124.236 72.8149 124.22C72.8224 124.268 72.8192 124.317 72.8034 124.366C71.7619 127.581 71.8454 131.873 72.3904 135.964C72.9314 140.025 73.9209 143.845 74.6706 146.13C77.356 147.443 81.5012 149.231 85.4643 150.45C87.4972 151.075 89.4718 151.548 91.1714 151.732C92.8848 151.919 94.2611 151.805 95.1414 151.319C95.2205 151.275 95.3103 151.27 95.3898 151.296C95.358 151.395 95.3254 151.494 95.292 151.593C95.2445 151.734 95.1954 151.874 95.1446 152.013C94.1058 152.465 92.6877 152.527 91.1041 152.355C89.3496 152.164 87.333 151.679 85.2812 151.048C81.1763 149.785 76.8882 147.922 74.1911 146.591C74.0457 146.519 73.9808 146.349 74.0368 146.2C73.2818 143.87 72.3086 140.077 71.7717 136.047C71.232 131.996 71.127 127.663 72.1596 124.331Z" fill="#51B022"/>
<path d="M68.2996 125.521C68.4102 125.471 68.5221 125.423 68.6351 125.375C68.7307 125.335 68.827 125.296 68.9242 125.257C68.9445 125.307 68.9522 125.362 68.9441 125.419C67.4971 135.565 70.4455 144.562 72.1575 147.929C72.1808 147.938 72.2034 147.95 72.2248 147.965C74.4642 149.549 78.2158 151.823 82.1793 153.492C84.1607 154.327 86.1874 155.007 88.0994 155.375C90.0142 155.744 91.7939 155.796 93.292 155.396C93.3948 155.368 93.4994 155.396 93.5748 155.46C93.4594 155.667 93.3434 155.866 93.2268 156.057C91.6561 156.428 89.856 156.351 87.9816 155.99C86.014 155.611 83.9443 154.914 81.9376 154.069C77.9722 152.399 74.2233 150.135 71.946 148.534C71.8376 148.53 71.7343 148.469 71.6803 148.366C69.9426 145.046 66.8734 135.892 68.2996 125.521Z" fill="#51B022"/>
<path d="M64.1812 128.436C64.2942 128.308 64.412 128.181 64.5347 128.056C64.6072 127.982 64.6815 127.909 64.7573 127.837C64.8214 127.902 64.8563 127.995 64.8446 128.093C64.5516 130.545 64.9173 133.372 65.5028 135.923C66.0875 138.471 66.8856 140.72 67.4393 142.006C67.5056 142.159 67.4391 142.337 67.2907 142.41C67.2454 142.317 67.1994 142.224 67.1528 142.13C66.8057 141.43 66.4227 140.707 66.0013 139.968C65.6178 138.834 65.223 137.495 64.8945 136.064C64.3339 133.621 63.9615 130.887 64.1812 128.436Z" fill="#51B022"/>
<path d="M77.3866 154.896C75.9591 153.715 74.4651 152.524 73.0853 151.593C72.9981 151.534 72.9115 151.477 72.8253 151.42C72.8284 151.415 72.8316 151.411 72.835 151.406C72.9381 151.267 73.1336 151.239 73.2718 151.342C75.4289 152.954 78.8976 155.259 82.2872 156.93C83.9827 157.766 85.6467 158.438 87.1101 158.788C88.5853 159.141 89.7985 159.154 90.6348 158.746C90.765 158.682 90.9175 158.717 91.0078 158.822C90.929 158.893 90.8502 158.961 90.7715 159.027C90.5092 159.246 90.2471 159.436 89.9862 159.602C89.1039 159.762 88.0669 159.661 86.965 159.397C85.4384 159.031 83.7278 158.338 82.0117 157.491C80.4398 156.716 78.8535 155.808 77.3866 154.896Z" fill="#51B022"/>
<path d="M96.0487 148.6C95.0718 149.042 93.7267 149.143 92.222 149.04C90.595 148.927 88.7294 148.571 86.8334 148.089C83.0406 147.127 79.0878 145.655 76.6041 144.593L76.4602 144.531L76.4233 144.379C75.8998 142.217 75.2208 138.609 74.8811 134.795C74.5455 131.026 74.5376 127.019 75.3612 124.004C75.4692 124.002 75.5775 124.001 75.6862 124C75.79 124 75.894 124 75.9984 124.001C75.9983 124.029 75.9945 124.057 75.9866 124.085C75.1703 126.995 75.1656 130.951 75.5029 134.739C75.8316 138.431 76.4816 141.929 76.9932 144.079C79.463 145.127 83.3055 146.548 86.9866 147.483C88.8638 147.959 90.6895 148.306 92.2649 148.415C93.8524 148.525 95.135 148.388 95.9634 147.945C96.0245 147.912 96.0917 147.902 96.1553 147.911C96.1411 148.014 96.1261 148.118 96.1104 148.221C96.091 148.347 96.0705 148.474 96.0487 148.6Z" fill="#51B022"/>
<path d="M96.3239 143.992C96.3291 144.097 96.3334 144.201 96.3371 144.305C96.3412 144.426 96.3444 144.546 96.3466 144.667C96.0743 144.811 95.7239 144.899 95.3362 144.952C94.8499 145.018 94.2625 145.034 93.6065 145.012C92.2935 144.969 90.6701 144.773 88.9582 144.498C85.5325 143.946 81.7176 143.071 79.2495 142.433L79.0666 142.385L79.0236 142.201C78.3474 139.303 77.3601 131.674 78.7949 124.222C78.8976 124.237 79.0005 124.253 79.1035 124.269C79.206 124.286 79.3086 124.303 79.4113 124.322C79.4109 124.324 79.4105 124.326 79.41 124.329C78.0225 131.522 78.9292 138.904 79.5894 141.874C82.0483 142.505 85.7403 143.346 89.0571 143.88C90.7584 144.153 92.3523 144.345 93.627 144.387C94.2648 144.408 94.8139 144.391 95.2524 144.332C95.7003 144.271 95.9931 144.17 96.1525 144.053C96.2044 144.015 96.2641 143.995 96.3239 143.992Z" fill="#51B022"/>
<path d="M95.8165 140.268C95.8393 140.369 95.8615 140.471 95.8829 140.573C95.9062 140.684 95.9287 140.796 95.9503 140.907C95.8788 140.948 95.8017 140.979 95.7253 141.004C95.5894 141.049 95.4309 141.082 95.2576 141.106C94.9108 141.156 94.4739 141.175 93.9761 141.173C92.9788 141.169 91.6994 141.076 90.328 140.937C87.5833 140.658 84.4402 140.187 82.3833 139.839L82.1356 139.797L82.1235 139.545C82.0384 137.778 82.0417 134.975 82.3283 132.3C82.4716 130.963 82.6866 129.65 82.9996 128.511C83.3005 127.416 83.6994 126.453 84.2348 125.787C84.3335 125.831 84.4317 125.876 84.5293 125.921C84.6239 125.965 84.7179 126.01 84.8115 126.055C84.8001 126.079 84.7855 126.102 84.7675 126.123C84.291 126.688 83.9043 127.575 83.6014 128.677C83.3004 129.772 83.0902 131.049 82.949 132.367C82.6798 134.88 82.6641 137.513 82.7358 139.263C84.7833 139.605 87.7725 140.048 90.391 140.314C91.7553 140.453 93.0114 140.543 93.9789 140.547C94.4634 140.549 94.8662 140.53 95.17 140.487C95.322 140.465 95.4415 140.439 95.5306 140.409C95.6238 140.379 95.662 140.352 95.6716 140.343C95.7139 140.304 95.7641 140.279 95.8165 140.268Z" fill="#51B022"/>
<path d="M94.5487 136.368C94.5936 136.472 94.6378 136.576 94.6811 136.681C94.7209 136.777 94.7601 136.874 94.7986 136.971C94.7623 136.985 94.7227 136.994 94.6811 136.994H85.4738L87.0517 127.483C87.0592 127.438 87.0763 127.396 87.1005 127.36C87.1874 127.417 87.2737 127.476 87.3595 127.535C87.4547 127.6 87.5492 127.666 87.643 127.733L86.2104 136.368H94.5487Z" fill="#51B022"/>
<path d="M92.978 133.394C93.0438 133.498 93.1086 133.602 93.1725 133.707C93.2268 133.796 93.2804 133.885 93.3333 133.975C93.2863 134.004 93.2313 134.02 93.1725 134.02H89.3974C89.2251 134.02 89.0853 133.88 89.0853 133.707C89.0853 133.649 89.1011 133.594 89.1286 133.548L89.4198 129.426C89.425 129.352 89.4554 129.286 89.5021 129.236C89.579 129.306 89.6554 129.377 89.7311 129.448C89.8298 129.541 89.9275 129.635 90.0241 129.73L89.7653 133.394H92.978Z" fill="#51B022"/>
<path d="M89.7657 134.078L92.1048 132.122C92.0013 131.982 91.8959 131.844 91.7887 131.707C91.6818 131.57 91.5731 131.435 91.4626 131.301L91.4555 131.306L89.0992 133.277C89.0992 133.277 89.0992 133.277 89.0992 133.277C89.0934 133.282 89.0876 133.287 89.082 133.292C89.076 133.297 89.0701 133.302 89.0642 133.306L69.6042 149.583L58.1367 162.126C57.9426 162.338 57.9569 162.668 58.1687 162.863C58.3805 163.058 58.7095 163.043 58.9036 162.831L70.3241 150.339L70.5372 150.161C70.5372 150.161 70.5373 150.161 70.5372 150.161L89.7308 134.107C89.7366 134.103 89.7423 134.098 89.7479 134.092C89.7539 134.088 89.7598 134.083 89.7657 134.078Z" fill="#51B022"/>
<path fill-rule="evenodd" clip-rule="evenodd" d="M92.1048 132.122L89.7656 134.078C89.7598 134.083 89.7539 134.088 89.7479 134.093C89.7423 134.098 89.7366 134.103 89.7307 134.107L70.5372 150.161L70.5372 150.161C70.3389 150.081 70.1476 150.014 69.9642 149.961C69.9357 149.79 69.8979 149.595 69.8501 149.377L89.0642 133.307C89.0701 133.302 89.076 133.297 89.082 133.292C89.0876 133.287 89.0934 133.282 89.0992 133.277L91.4555 131.306L91.4625 131.301C91.573 131.435 91.6818 131.57 91.7887 131.707C91.8959 131.844 92.0012 131.982 92.1048 132.122Z" fill="#51B022"/>
<ellipse cx="48" cy="48" rx="48" ry="48" fill="#51B022"/>
<g style="mix-blend-mode:multiply">
<path d="M48 20.8L50.0818 42.9741L67.2333 28.7667L53.026 45.9182L75.2 48L53.026 50.0818L67.2333 67.2333L50.0818 53.0259L48 75.2L45.9182 53.0259L28.7667 67.2333L42.9741 50.0818L20.8 48L42.9741 45.9182L28.7667 28.7667L45.9182 42.9741L48 20.8Z" fill="#51B022"/>
<ellipse cx="11.2" cy="11.2" rx="11.2" ry="11.2" transform="matrix(-1 0 0 1 59.2001 36.8)" fill="#51B022"/>
<path d="M53.7198 40.5838C52.5916 41.712 52.5256 43.4751 52.5256 43.4751C52.5256 43.4751 54.2887 43.4091 55.4169 42.2809C56.5451 41.1527 59.8795 36.1212 59.8795 36.1212C59.8795 36.1212 54.848 39.4556 53.7198 40.5838Z" fill="#51B022"/>
<path d="M56.1227 43.3374C54.6486 43.9479 53.9129 45.5516 53.9129 45.5516C53.9129 45.5516 55.5671 46.1652 57.0411 45.5547C58.5151 44.9441 63.5212 41.5716 63.5212 41.5716C63.5212 41.5716 57.5967 42.7268 56.1227 43.3374Z" fill="#51B022"/>
<path d="M57.2889 46.8006C55.6934 46.8006 54.4 48.0006 54.4 48.0006C54.4 48.0006 55.6934 49.2006 57.2889 49.2006C58.8844 49.2006 64.8 48.0006 64.8 48.0006C64.8 48.0006 58.8844 46.8006 57.2889 46.8006Z" fill="#51B022"/>
<path d="M57.0411 50.4466C55.5671 49.836 53.9129 50.4497 53.9129 50.4497C53.9129 50.4497 54.6486 52.0533 56.1227 52.6639C57.5967 53.2745 63.5212 54.4296 63.5212 54.4296C63.5212 54.4296 58.5151 51.0572 57.0411 50.4466Z" fill="#51B022"/>
<path d="M55.4169 53.7203C54.2887 52.5921 52.5256 52.5261 52.5256 52.5261C52.5256 52.5261 52.5917 54.2892 53.7198 55.4174C54.848 56.5455 59.8795 59.88 59.8795 59.88C59.8795 59.88 56.5451 54.8485 55.4169 53.7203Z" fill="#51B022"/>
<path d="M52.6635 56.123C52.0529 54.649 50.4493 53.9133 50.4493 53.9133C50.4493 53.9133 49.8356 55.5674 50.4462 57.0415C51.0567 58.5155 54.4292 63.5216 54.4292 63.5216C54.4292 63.5216 53.2741 57.5971 52.6635 56.123Z" fill="#51B022"/>
<path d="M49.2 57.2893C49.2 55.6938 48 54.4004 48 54.4004C48 54.4004 46.8 55.6938 46.8 57.2893C46.8 58.8848 48 64.8004 48 64.8004C48 64.8004 49.2 58.8848 49.2 57.2893Z" fill="#51B022"/>
<path d="M45.554 57.0414C46.1645 55.5674 45.5508 53.9132 45.5508 53.9132C45.5508 53.9132 43.9472 54.6489 43.3367 56.123C42.7261 57.597 41.5709 63.5215 41.5709 63.5215C41.5709 63.5215 44.9434 58.5154 45.554 57.0414Z" fill="#51B022"/>
<path d="M42.2804 55.4171C43.4086 54.289 43.4747 52.5259 43.4747 52.5259C43.4747 52.5259 41.7116 52.5919 40.5834 53.7201C39.4552 54.8483 36.1207 59.8798 36.1207 59.8798C36.1207 59.8798 41.1522 56.5453 42.2804 55.4171Z" fill="#51B022"/>
<path d="M39.8775 52.6636C41.3515 52.053 42.0872 50.4494 42.0872 50.4494C42.0872 50.4494 40.4331 49.8357 38.959 50.4463C37.485 51.0569 32.4789 54.4293 32.4789 54.4293C32.4789 54.4293 38.4034 53.2742 39.8775 52.6636Z" fill="#51B022"/>
<path d="M38.7112 49.2002C40.3067 49.2002 41.6001 48.0002 41.6001 48.0002C41.6001 48.0002 40.3067 46.8002 38.7112 46.8002C37.1157 46.8002 31.2001 48.0002 31.2001 48.0002C31.2001 48.0002 37.1157 49.2002 38.7112 49.2002Z" fill="#51B022"/>
<path d="M38.959 45.5542C40.4331 46.1648 42.0872 45.5511 42.0872 45.5511C42.0872 45.5511 41.3515 43.9475 39.8775 43.3369C38.4034 42.7263 32.4789 41.5712 32.4789 41.5712C32.4789 41.5712 37.485 44.9436 38.959 45.5542Z" fill="#51B022"/>
<path d="M40.5833 42.2805C41.7115 43.4087 43.4746 43.4747 43.4746 43.4747C43.4746 43.4747 43.4086 41.7116 42.2804 40.5834C41.1522 39.4553 36.1207 36.1208 36.1207 36.1208C36.1207 36.1208 39.4552 41.1523 40.5833 42.2805Z" fill="#51B022"/>
<path d="M43.3368 39.8775C43.9473 41.3516 45.5509 42.0873 45.5509 42.0873C45.5509 42.0873 46.1646 40.4331 45.5541 38.9591C44.9435 37.485 41.571 32.4789 41.571 32.4789C41.571 32.4789 42.7262 38.4035 43.3368 39.8775Z" fill="#51B022"/>
<path d="M46.8001 38.7111C46.8001 40.3066 48.0001 41.6 48.0001 41.6C48.0001 41.6 49.2001 40.3066 49.2001 38.7111C49.2001 37.1156 48.0001 31.2 48.0001 31.2C48.0001 31.2 46.8001 37.1156 46.8001 38.7111Z" fill="#51B022"/>
<path d="M50.4462 38.9596C49.8356 40.4336 50.4493 42.0878 50.4493 42.0878C50.4493 42.0878 52.0529 41.3521 52.6635 39.878C53.274 38.404 54.4292 32.4794 54.4292 32.4794C54.4292 32.4794 51.0567 37.4855 50.4462 38.9596Z" fill="#51B022"/>
</g>
<path d="M69.7512 109.95C80.6443 110.146 87.1996 105.353 89.1155 102.933C98.4844 93.142 90.2238 87.6327 86.2843 87.6982C73.1562 87.9167 69.6581 102.774 69.7512 109.95Z" fill="#CDCDCD"/>
<path d="M70.5093 109.947C80.1296 109.212 85.5822 105.818 87.4748 103.749C96.5622 95.2458 89.603 90.6096 86.9519 91.0105C75.3206 92.2551 71.0129 104.283 70.5093 109.947Z" fill="white"/>
<path d="M71.856 99.0203C69.2051 100.551 69.0688 107.202 69.332 110.336C72.671 110.38 79.5522 110.131 80.3657 108.786C81.1791 107.44 78.447 108.141 77.4048 107.866C78.2021 107.844 79.89 106.431 79.866 106.007C79.8179 105.158 77.0004 105.763 75.4381 106.373C76.8187 105.575 79.362 103.757 78.4898 102.858C77.6176 101.959 74.8912 103.767 73.637 104.783C74.5754 103.73 76.239 101.485 75.386 100.926C74.533 100.367 72.5534 102.269 71.6702 103.29C73.1635 99.4484 72.4162 98.8429 71.856 99.0203Z" fill="#9B9B9B"/>
<g style="mix-blend-mode:multiply">
<path d="M69.7512 109.95C80.6443 110.146 87.1996 105.353 89.1155 102.933C98.4844 93.142 90.2238 87.6327 86.2843 87.6982C73.1562 87.9167 69.6581 102.774 69.7512 109.95Z" fill="#FD6565"/>
<path d="M70.5093 109.947C80.1296 109.212 85.5822 105.818 87.4748 103.749C96.5622 95.2458 89.603 90.6096 86.9519 91.0105C75.3206 92.2551 71.0129 104.283 70.5093 109.947Z" fill="#FD6565"/>
<path d="M71.856 99.0203C69.2051 100.551 69.0688 107.202 69.332 110.336C72.671 110.38 79.5522 110.131 80.3657 108.786C81.1791 107.44 78.447 108.141 77.4048 107.866C78.2021 107.844 79.89 106.431 79.866 106.007C79.8179 105.158 77.0004 105.763 75.4381 106.373C76.8187 105.575 79.362 103.757 78.4898 102.858C77.6176 101.959 74.8912 103.767 73.637 104.783C74.5754 103.73 76.239 101.485 75.386 100.926C74.533 100.367 72.5534 102.269 71.6702 103.29C73.1635 99.4484 72.4162 98.8429 71.856 99.0203Z" fill="#FD6565"/>
</g>
<g style="mix-blend-mode:soft-light">
<path d="M69.7512 109.95C80.6443 110.146 87.1996 105.353 89.1155 102.933C98.4844 93.142 90.2238 87.6327 86.2843 87.6982C73.1562 87.9167 69.6581 102.774 69.7512 109.95Z" fill="#FD6565"/>
<path d="M70.5093 109.947C80.1296 109.212 85.5822 105.818 87.4748 103.749C96.5622 95.2458 89.603 90.6096 86.9519 91.0105C75.3206 92.2551 71.0129 104.283 70.5093 109.947Z" fill="#FD6565"/>
<path d="M71.856 99.0203C69.2051 100.551 69.0688 107.202 69.332 110.336C72.671 110.38 79.5522 110.131 80.3657 108.786C81.1791 107.44 78.447 108.141 77.4048 107.866C78.2021 107.844 79.89 106.431 79.866 106.007C79.8179 105.158 77.0004 105.763 75.4381 106.373C76.8187 105.575 79.362 103.757 78.4898 102.858C77.6176 101.959 74.8912 103.767 73.637 104.783C74.5754 103.73 76.239 101.485 75.386 100.926C74.533 100.367 72.5534 102.269 71.6702 103.29C73.1635 99.4484 72.4162 98.8429 71.856 99.0203Z" fill="#FD6565"/>
</g>
<g clip-path="url(#clip0_50_2862)">
<path fill-rule="evenodd" clip-rule="evenodd" d="M19.9815 151.258C20.1325 151.491 20.2856 151.724 20.4408 151.958C24.0724 158.413 35.0968 168.412 50.1416 156.761L57.9583 163.158L58.2699 162.901L53.5792 154.776C59.9147 152.261 68.6501 145.978 62.9934 132.275C62.805 132.405 62.6119 132.535 62.4144 132.663C59.5679 134.518 56.8981 135.466 56.4511 134.781C56.0041 134.096 57.9492 132.037 60.7957 130.182C61.1159 129.973 61.4338 129.776 61.7466 129.592C61.0216 128.183 60.1538 126.703 59.1283 125.149C58.1819 125.988 56.9386 126.93 55.5259 127.851C52.0641 130.107 48.8954 131.38 48.4484 130.694C48.0014 130.009 50.4454 127.625 53.9072 125.369C55.2991 124.463 56.6435 123.714 57.7828 123.189C56.3724 121.209 54.9321 119.415 53.4731 117.795C52.6732 118.8 51.5768 119.971 50.2987 121.149C47.2616 123.949 44.3489 125.733 43.793 125.132C43.2371 124.532 45.2484 121.775 48.2855 118.975C49.5576 117.802 50.8079 116.808 51.8723 116.092C49.5025 113.68 47.0951 111.704 44.6976 110.103C44.297 111.004 43.8013 111.99 43.2289 113.003C41.2001 116.597 38.9757 119.186 38.2607 118.786C37.5457 118.387 38.6108 115.15 40.6396 111.556C41.2356 110.5 41.8486 109.531 42.4351 108.699C38.6922 106.551 35.0106 105.283 31.5738 104.667C31.5067 105.313 31.4131 105.997 31.2923 106.702C30.646 110.472 29.466 113.419 28.6566 113.285C27.8473 113.15 27.7151 109.984 28.3614 106.214C28.4761 105.545 28.6075 104.902 28.7507 104.298C23.7548 103.889 19.4434 104.844 16.4611 106.363C14.7105 108.098 12.8153 111.063 11.6402 115.123C11.8571 115.141 12.0766 115.162 12.2984 115.186C16.1072 115.587 19.1222 116.573 19.0325 117.387C18.9428 118.202 15.7825 118.537 11.9736 118.135C11.6317 118.099 11.2962 118.059 10.9688 118.014C10.4995 120.649 10.3377 123.642 10.6522 126.966C11.8908 126.726 13.3106 126.514 14.8246 126.355C19.7613 125.837 23.8302 126.078 23.9127 126.892C23.9951 127.707 20.06 128.787 15.1232 129.305C13.638 129.461 12.2314 129.548 10.9882 129.571C11.4115 132.173 12.1231 134.954 13.1928 137.904C13.6737 137.689 14.1723 137.474 14.6848 137.262C19.276 135.366 23.2504 134.442 23.5618 135.198C23.8731 135.955 20.4037 138.105 15.8125 140.002C15.2849 140.22 14.7654 140.425 14.2587 140.616C15.3565 143.209 16.7282 145.922 18.4165 148.748C21.5481 147.085 24.3164 146.298 24.6945 146.987C25.0667 147.665 22.9889 149.531 19.9815 151.258Z" fill="#51B022"/>
<path fill-rule="evenodd" clip-rule="evenodd" d="M51.5714 152.807C43.5368 139.684 25.4088 117.407 17.3431 107.903L17.737 107.569C25.8004 117.07 43.9537 139.375 52.012 152.537L51.5714 152.807ZM20.6462 113.531C18.8991 112.769 16.4075 112.636 15.3769 112.668L15.3609 112.152C16.4177 112.119 19.0007 112.25 20.8529 113.058L20.6462 113.531ZM25.4527 114.018C23.5484 111.128 23.9245 108.144 24.366 106.984L24.8488 107.168C24.4554 108.201 24.087 111.006 25.8841 113.734L25.4527 114.018ZM26.5131 122.693C21.504 120.652 16.1919 121.918 14.175 122.803L13.9674 122.33C16.0647 121.41 21.5282 120.104 26.7081 122.215L26.5131 122.693ZM33.1523 114.976C33.6694 112.975 34.3887 111.262 34.8976 110.291L35.3553 110.531C34.8647 111.467 34.1597 113.142 33.6525 115.105C33.1449 117.07 32.8403 119.304 33.1337 121.365L32.6222 121.438C32.3156 119.284 32.6355 116.976 33.1523 114.976ZM41.0812 121.89C39.4829 123.595 37.8445 124.958 36.8186 125.695L36.5172 125.275C37.5164 124.557 39.1294 123.217 40.7042 121.536C42.2808 119.854 43.8044 117.847 44.6431 115.798L45.1212 115.994C44.2486 118.126 42.6776 120.186 41.0812 121.89ZM23.7104 131.419C21.4185 132.163 19.0521 132.61 17.5689 132.795L17.5049 132.283C18.9612 132.101 21.295 131.659 23.5509 130.927C25.8196 130.191 27.9562 129.177 29.0709 127.879L29.4629 128.216C28.2482 129.63 25.9895 130.679 23.7104 131.419ZM46.2619 128.732C43.9839 130.188 41.6595 131.215 40.2085 131.716L40.0399 131.227C41.4552 130.739 43.7423 129.729 45.9836 128.296C48.2287 126.861 50.4016 125.017 51.6201 122.867L52.0696 123.121C50.7906 125.378 48.5362 127.278 46.2619 128.732ZM27.0549 140.325C24.4839 141.445 21.9804 142.043 20.4522 142.25L20.3828 141.738C21.8656 141.537 24.3229 140.952 26.8486 139.852C29.3761 138.751 31.9493 137.143 33.6898 134.91L34.0974 135.227C32.2834 137.555 29.6241 139.206 27.0549 140.325ZM34.338 144.396C32.5721 145.601 30.7622 146.343 29.6252 146.659L29.4868 146.161C30.5715 145.86 32.3294 145.141 34.0468 143.969C35.7645 142.797 37.4229 141.184 38.3385 139.104L38.8114 139.312C37.8438 141.511 36.1036 143.191 34.338 144.396ZM50.9544 134.546C48.6753 135.677 46.2997 136.416 44.8027 136.752L44.6897 136.248C46.1519 135.92 48.4875 135.194 50.7247 134.083C52.9697 132.969 55.0737 131.488 56.1245 129.672L56.5717 129.931C55.443 131.882 53.2256 133.419 50.9544 134.546ZM40.7113 145.031C38.6669 152.04 31.9028 154.091 28.7876 154.246L28.7618 153.73C31.7723 153.58 38.2596 151.591 40.2153 144.887L40.7113 145.031ZM54.8377 142.015C52.7179 142.83 50.6337 143.167 49.3531 143.228L49.3287 142.711C50.5578 142.653 52.5873 142.326 54.6523 141.533C56.7187 140.738 58.7957 139.487 60.1524 137.596L60.5721 137.897C59.135 139.9 56.9561 141.201 54.8377 142.015ZM37.4794 156.08C41.9042 154.418 43.7555 150.778 44.1251 149.198L44.6282 149.315C44.227 151.031 42.2765 154.831 37.6611 156.564L37.4794 156.08ZM56.1452 146.553C54.4255 147.152 52.727 147.32 51.6789 147.29L51.6936 146.774C52.6843 146.802 54.3198 146.642 55.9755 146.065C57.6312 145.489 59.2831 144.506 60.3438 142.907L60.7744 143.192C59.6301 144.918 57.865 145.955 56.1452 146.553Z" fill="#51B022"/>
</g>
<defs>
<clipPath id="clip0_50_2862">
<rect width="62" height="62" fill="white" transform="translate(5 104)"/>
</clipPath>
</defs>
</svg>
